<?xml version="1.0" encoding="UTF-8" standalone="no"?>
<!-- Created with Inkscape (http://www.inkscape.org/) -->

<svg
   xmlns:dc="http://purl.org/dc/elements/1.1/"
   xmlns:cc="http://creativecommons.org/ns#"
   xmlns:rdf="http://www.w3.org/1999/02/22-rdf-syntax-ns#"
   xmlns:svg="http://www.w3.org/2000/svg"
   xmlns="http://www.w3.org/2000/svg"
   xmlns:sodipodi="http://sodipodi.sourceforge.net/DTD/sodipodi-0.dtd"
   xmlns:inkscape="http://www.inkscape.org/namespaces/inkscape"
   width="48pt"
   height="48pt"
   viewBox="0 0 16.933334 16.933333"
   version="1.1"
   id="svg979"
   inkscape:version="0.92.4 (5da689c313, 2019-01-14)"
   sodipodi:docname="17 - Towel.svg"
   inkscape:export-filename="E:\TR Design Studio Creative\Project Design\TR Creative Design\Icon Design\Project Hiring\Icon Icons\Project - 001\002 - Beauty And Fashion\Send\4 - Filled Line\17 - Towel.png"
   inkscape:export-xdpi="768"
   inkscape:export-ydpi="768">
  <defs
     id="defs973">
    <pattern
       y="0"
       x="0"
       height="6"
       width="6"
       patternUnits="userSpaceOnUse"
       id="EMFhbasepattern" />
    <pattern
       y="0"
       x="0"
       height="6"
       width="6"
       patternUnits="userSpaceOnUse"
       id="EMFhbasepattern-3" />
  </defs>
  <sodipodi:namedview
     id="base"
     pagecolor="#ffffff"
     bordercolor="#666666"
     borderopacity="1.0"
     inkscape:pageopacity="0.0"
     inkscape:pageshadow="2"
     inkscape:zoom="6.8254661"
     inkscape:cx="32"
     inkscape:cy="31.999142"
     inkscape:document-units="pt"
     inkscape:current-layer="layer1"
     showgrid="false"
     units="pt"
     inkscape:window-width="1366"
     inkscape:window-height="716"
     inkscape:window-x="-8"
     inkscape:window-y="-8"
     inkscape:window-maximized="1"
     inkscape:snap-bbox="true"
     inkscape:bbox-nodes="true"
     inkscape:snap-nodes="false"
     showguides="false"
     inkscape:snap-global="true">
    <inkscape:grid
       type="xygrid"
       id="grid1526" />
    <sodipodi:guide
       position="0.97013909,15.963209"
       orientation="56.666615,0"
       id="guide1528"
       inkscape:locked="false" />
    <sodipodi:guide
       position="0.97013909,0.97016731"
       orientation="0,56.666667"
       id="guide1530"
       inkscape:locked="false" />
    <sodipodi:guide
       position="15.963195,0.97016731"
       orientation="-56.666615,0"
       id="guide1532"
       inkscape:locked="false" />
    <sodipodi:guide
       position="15.963195,15.963209"
       orientation="0,-56.666667"
       id="guide1534"
       inkscape:locked="false" />
  </sodipodi:namedview>
  <metadata
     id="metadata976">
    <rdf:RDF>
      <cc:Work
         rdf:about="">
        <dc:format>image/svg+xml</dc:format>
        <dc:type
           rdf:resource="http://purl.org/dc/dcmitype/StillImage" />
        <dc:title></dc:title>
      </cc:Work>
    </rdf:RDF>
  </metadata>
  <g
     inkscape:label="Layer 1"
     inkscape:groupmode="layer"
     id="layer1"
     transform="translate(0,-280.06668)">
    <g
       transform="matrix(1.2317038,0,0,1.2317038,-53.585139,-96.574963)"
       style="display:inline;stroke-width:0.81188351"
       id="g2566">
      <path
         inkscape:export-ydpi="700.72992"
         inkscape:export-xdpi="700.72992"
         inkscape:connector-curvature="0"
         id="path2006"
         d="m 45.880859,308.29688 a 0.26460978,0.26460978 0 0 0 -0.265625,0.26562 v 1.05859 a 0.26460978,0.26460978 0 0 0 0.265625,0.26368 h 1.058594 a 0.26460978,0.26460978 0 0 0 0.263672,-0.26368 v -1.05859 a 0.26460978,0.26460978 0 0 0 -0.263672,-0.26562 z"
         style="color:#000000;font-style:normal;font-variant:normal;font-weight:normal;font-stretch:normal;font-size:medium;line-height:normal;font-family:sans-serif;font-variant-ligatures:normal;font-variant-position:normal;font-variant-caps:normal;font-variant-numeric:normal;font-variant-alternates:normal;font-feature-settings:normal;text-indent:0;text-align:start;text-decoration:none;text-decoration-line:none;text-decoration-style:solid;text-decoration-color:#000000;letter-spacing:normal;word-spacing:normal;text-transform:none;writing-mode:lr-tb;direction:ltr;text-orientation:mixed;dominant-baseline:auto;baseline-shift:baseline;text-anchor:start;white-space:normal;shape-padding:0;clip-rule:nonzero;display:inline;overflow:visible;visibility:visible;opacity:1;isolation:auto;mix-blend-mode:normal;color-interpolation:sRGB;color-interpolation-filters:linearRGB;solid-color:#000000;solid-opacity:1;vector-effect:none;fill:#f2f2f2;fill-opacity:1;fill-rule:nonzero;stroke:none;stroke-width:0.42962167;stroke-linecap:round;stroke-linejoin:round;stroke-miterlimit:1.5;stroke-dasharray:none;stroke-dashoffset:0;stroke-opacity:1;paint-order:markers fill stroke;color-rendering:auto;image-rendering:auto;shape-rendering:auto;text-rendering:auto;enable-background:accumulate" />
      <path
         inkscape:export-ydpi="700.72992"
         inkscape:export-xdpi="700.72992"
         inkscape:connector-curvature="0"
         id="path2038"
         d="m 45.880919,308.29699 a 0.26460979,0.26460979 0 0 0 -0.265615,0.26561 v 0.52917 a 0.26460979,0.26460979 0 0 1 0.265615,-0.26562 h 1.058333 a 0.26460979,0.26460979 0 0 1 0.264068,0.26562 v -0.52917 a 0.26460979,0.26460979 0 0 0 -0.264068,-0.26561 z"
         style="color:#000000;font-style:normal;font-variant:normal;font-weight:normal;font-stretch:normal;font-size:medium;line-height:normal;font-family:sans-serif;font-variant-ligatures:normal;font-variant-position:normal;font-variant-caps:normal;font-variant-numeric:normal;font-variant-alternates:normal;font-feature-settings:normal;text-indent:0;text-align:start;text-decoration:none;text-decoration-line:none;text-decoration-style:solid;text-decoration-color:#000000;letter-spacing:normal;word-spacing:normal;text-transform:none;writing-mode:lr-tb;direction:ltr;text-orientation:mixed;dominant-baseline:auto;baseline-shift:baseline;text-anchor:start;white-space:normal;shape-padding:0;clip-rule:nonzero;display:inline;overflow:visible;visibility:visible;opacity:1;isolation:auto;mix-blend-mode:normal;color-interpolation:sRGB;color-interpolation-filters:linearRGB;solid-color:#000000;solid-opacity:1;vector-effect:none;fill:#d8d8d8;fill-opacity:1;fill-rule:nonzero;stroke:none;stroke-width:0.42962167;stroke-linecap:round;stroke-linejoin:round;stroke-miterlimit:1.5;stroke-dasharray:none;stroke-dashoffset:0;stroke-opacity:1;paint-order:markers fill stroke;color-rendering:auto;image-rendering:auto;shape-rendering:auto;text-rendering:auto;enable-background:accumulate" />
      <path
         inkscape:export-ydpi="700.72992"
         inkscape:export-xdpi="700.72992"
         inkscape:connector-curvature="0"
         id="path1998"
         d="m 44.558594,307.76758 a 0.26460978,0.26460978 0 0 0 -0.265625,0.26562 v 2.11719 a 0.26460978,0.26460978 0 0 0 0.265625,0.26367 h 1.322265 a 0.26460978,0.26460978 0 0 0 0.263672,-0.26367 v -2.11719 a 0.26460978,0.26460978 0 0 0 -0.263672,-0.26562 z"
         style="color:#000000;font-style:normal;font-variant:normal;font-weight:normal;font-stretch:normal;font-size:medium;line-height:normal;font-family:sans-serif;font-variant-ligatures:normal;font-variant-position:normal;font-variant-caps:normal;font-variant-numeric:normal;font-variant-alternates:normal;font-feature-settings:normal;text-indent:0;text-align:start;text-decoration:none;text-decoration-line:none;text-decoration-style:solid;text-decoration-color:#000000;letter-spacing:normal;word-spacing:normal;text-transform:none;writing-mode:lr-tb;direction:ltr;text-orientation:mixed;dominant-baseline:auto;baseline-shift:baseline;text-anchor:start;white-space:normal;shape-padding:0;clip-rule:nonzero;display:inline;overflow:visible;visibility:visible;opacity:1;isolation:auto;mix-blend-mode:normal;color-interpolation:sRGB;color-interpolation-filters:linearRGB;solid-color:#000000;solid-opacity:1;vector-effect:none;fill:#546e7a;fill-opacity:1;fill-rule:nonzero;stroke:none;stroke-width:0.42962167;stroke-linecap:round;stroke-linejoin:round;stroke-miterlimit:1.5;stroke-dasharray:none;stroke-dashoffset:0;stroke-opacity:1;paint-order:markers fill stroke;color-rendering:auto;image-rendering:auto;shape-rendering:auto;text-rendering:auto;enable-background:accumulate" />
      <path
         inkscape:export-ydpi="700.72992"
         inkscape:export-xdpi="700.72992"
         sodipodi:nodetypes="ccccscscsccc"
         inkscape:connector-curvature="0"
         id="path2029"
         d="m 52.496094,306.97461 v 1.58789 7.4082 c 5.1e-4,0.14541 0.11826,0.26317 0.263672,0.26368 h 0.529296 c 0.220485,0 0.409987,-0.1014 0.550782,-0.24219 0.140794,-0.1408 0.242187,-0.3303 0.242187,-0.55078 v -6.34961 -1.32422 c 0,-0.22049 -0.101393,-0.40999 -0.242187,-0.55078 -0.140795,-0.1408 -0.330297,-0.24219 -0.550782,-0.24219 z"
         style="color:#000000;font-style:normal;font-variant:normal;font-weight:normal;font-stretch:normal;font-size:medium;line-height:normal;font-family:sans-serif;font-variant-ligatures:normal;font-variant-position:normal;font-variant-caps:normal;font-variant-numeric:normal;font-variant-alternates:normal;font-feature-settings:normal;text-indent:0;text-align:start;text-decoration:none;text-decoration-line:none;text-decoration-style:solid;text-decoration-color:#000000;letter-spacing:normal;word-spacing:normal;text-transform:none;writing-mode:lr-tb;direction:ltr;text-orientation:mixed;dominant-baseline:auto;baseline-shift:baseline;text-anchor:start;white-space:normal;shape-padding:0;clip-rule:nonzero;display:inline;overflow:visible;visibility:visible;opacity:1;isolation:auto;mix-blend-mode:normal;color-interpolation:sRGB;color-interpolation-filters:linearRGB;solid-color:#000000;solid-opacity:1;vector-effect:none;fill:#e92567;fill-opacity:1;fill-rule:nonzero;stroke:none;stroke-width:0.42962167;stroke-linecap:round;stroke-linejoin:round;stroke-miterlimit:1.5;stroke-dasharray:none;stroke-dashoffset:0;stroke-opacity:1;paint-order:markers fill stroke;color-rendering:auto;image-rendering:auto;shape-rendering:auto;text-rendering:auto;enable-background:accumulate" />
      <path
         inkscape:export-ydpi="700.72992"
         inkscape:export-xdpi="700.72992"
         inkscape:connector-curvature="0"
         id="path2085"
         transform="matrix(0.26458333,0,0,0.26458333,0,284.3)"
         d="m 198.41016,103.69727 v 12.00195 h 5.99414 v -12.00195 z"
         style="color:#000000;font-style:normal;font-variant:normal;font-weight:normal;font-stretch:normal;font-size:medium;line-height:normal;font-family:sans-serif;font-variant-ligatures:normal;font-variant-position:normal;font-variant-caps:normal;font-variant-numeric:normal;font-variant-alternates:normal;font-feature-settings:normal;text-indent:0;text-align:start;text-decoration:none;text-decoration-line:none;text-decoration-style:solid;text-decoration-color:#000000;letter-spacing:normal;word-spacing:normal;text-transform:none;writing-mode:lr-tb;direction:ltr;text-orientation:mixed;dominant-baseline:auto;baseline-shift:baseline;text-anchor:start;white-space:normal;shape-padding:0;clip-rule:nonzero;display:inline;overflow:visible;visibility:visible;opacity:1;isolation:auto;mix-blend-mode:normal;color-interpolation:sRGB;color-interpolation-filters:linearRGB;solid-color:#000000;solid-opacity:1;vector-effect:none;fill:#a10852;fill-opacity:1;fill-rule:nonzero;stroke:none;stroke-width:1.6237669;stroke-linecap:round;stroke-linejoin:round;stroke-miterlimit:1.5;stroke-dasharray:none;stroke-dashoffset:0;stroke-opacity:1;paint-order:markers fill stroke;color-rendering:auto;image-rendering:auto;shape-rendering:auto;text-rendering:auto;enable-background:accumulate" />
      <path
         inkscape:export-ydpi="700.72992"
         inkscape:export-xdpi="700.72992"
         sodipodi:nodetypes="ccccccc"
         inkscape:connector-curvature="0"
         id="path2004"
         d="m 52.496094,309.88477 h 2.380859 c 0.145412,-5.1e-4 0.263162,-0.11827 0.263672,-0.26368 v -1.05859 c 5.59e-4,-0.14617 -0.117503,-0.2651 -0.263672,-0.26562 h -2.380859 z"
         style="color:#000000;font-style:normal;font-variant:normal;font-weight:normal;font-stretch:normal;font-size:medium;line-height:normal;font-family:sans-serif;font-variant-ligatures:normal;font-variant-position:normal;font-variant-caps:normal;font-variant-numeric:normal;font-variant-alternates:normal;font-feature-settings:normal;text-indent:0;text-align:start;text-decoration:none;text-decoration-line:none;text-decoration-style:solid;text-decoration-color:#000000;letter-spacing:normal;word-spacing:normal;text-transform:none;writing-mode:lr-tb;direction:ltr;text-orientation:mixed;dominant-baseline:auto;baseline-shift:baseline;text-anchor:start;white-space:normal;shape-padding:0;clip-rule:nonzero;display:inline;overflow:visible;visibility:visible;opacity:1;isolation:auto;mix-blend-mode:normal;color-interpolation:sRGB;color-interpolation-filters:linearRGB;solid-color:#000000;solid-opacity:1;vector-effect:none;fill:#f2f2f2;fill-opacity:1;fill-rule:nonzero;stroke:none;stroke-width:0.42962167;stroke-linecap:round;stroke-linejoin:round;stroke-miterlimit:1.5;stroke-dasharray:none;stroke-dashoffset:0;stroke-opacity:1;paint-order:markers fill stroke;color-rendering:auto;image-rendering:auto;shape-rendering:auto;text-rendering:auto;enable-background:accumulate" />
      <path
         inkscape:export-ydpi="700.72992"
         inkscape:export-xdpi="700.72992"
         inkscape:connector-curvature="0"
         id="path2033"
         d="m 52.496158,308.29688 v 0.52917 h 1.322398 c 0.146169,5.3e-4 0.264626,0.11944 0.264067,0.26561 v 0.79324 h 0.794266 c 0.145413,-5.1e-4 0.263557,-0.11866 0.264068,-0.26407 v -1.05833 c 5.29e-4,-0.14617 -0.117899,-0.2651 -0.264068,-0.26562 z"
         style="color:#000000;font-style:normal;font-variant:normal;font-weight:normal;font-stretch:normal;font-size:medium;line-height:normal;font-family:sans-serif;font-variant-ligatures:normal;font-variant-position:normal;font-variant-caps:normal;font-variant-numeric:normal;font-variant-alternates:normal;font-feature-settings:normal;text-indent:0;text-align:start;text-decoration:none;text-decoration-line:none;text-decoration-style:solid;text-decoration-color:#000000;letter-spacing:normal;word-spacing:normal;text-transform:none;writing-mode:lr-tb;direction:ltr;text-orientation:mixed;dominant-baseline:auto;baseline-shift:baseline;text-anchor:start;white-space:normal;shape-padding:0;clip-rule:nonzero;display:inline;overflow:visible;visibility:visible;opacity:1;isolation:auto;mix-blend-mode:normal;color-interpolation:sRGB;color-interpolation-filters:linearRGB;solid-color:#000000;solid-opacity:1;vector-effect:none;fill:#d8d8d8;fill-opacity:1;fill-rule:nonzero;stroke:none;stroke-width:0.42962167;stroke-linecap:round;stroke-linejoin:round;stroke-miterlimit:1.5;stroke-dasharray:none;stroke-dashoffset:0;stroke-opacity:1;paint-order:markers fill stroke;color-rendering:auto;image-rendering:auto;shape-rendering:auto;text-rendering:auto;enable-background:accumulate" />
      <path
         inkscape:export-ydpi="700.72992"
         inkscape:export-xdpi="700.72992"
         sodipodi:nodetypes="cscssssscc"
         inkscape:connector-curvature="0"
         id="path2016"
         d="m 53.023438,306.97461 h -5.53125 c -0.224657,0 -0.419085,0.10204 -0.564454,0.24219 -0.145369,0.14014 -0.253906,0.32913 -0.253906,0.55273 v 9.79102 c 0,0.22005 0.103513,0.41007 0.248047,0.55078 0.144534,0.14071 0.340395,0.24023 0.564453,0.24023 h 4.736328 c 0.443734,0 0.800781,-0.35831 0.800782,-0.80273 0,-3.52474 0,-7.04948 0,-10.57422 z"
         style="color:#000000;font-style:normal;font-variant:normal;font-weight:normal;font-stretch:normal;font-size:medium;line-height:normal;font-family:sans-serif;font-variant-ligatures:normal;font-variant-position:normal;font-variant-caps:normal;font-variant-numeric:normal;font-variant-alternates:normal;font-feature-settings:normal;text-indent:0;text-align:start;text-decoration:none;text-decoration-line:none;text-decoration-style:solid;text-decoration-color:#000000;letter-spacing:normal;word-spacing:normal;text-transform:none;writing-mode:lr-tb;direction:ltr;text-orientation:mixed;dominant-baseline:auto;baseline-shift:baseline;text-anchor:start;white-space:normal;shape-padding:0;clip-rule:nonzero;display:inline;overflow:visible;visibility:visible;opacity:1;isolation:auto;mix-blend-mode:normal;color-interpolation:sRGB;color-interpolation-filters:linearRGB;solid-color:#000000;solid-opacity:1;vector-effect:none;fill:#ff7ca8;fill-opacity:1;fill-rule:nonzero;stroke:none;stroke-width:0.42962167;stroke-linecap:round;stroke-linejoin:round;stroke-miterlimit:1.5;stroke-dasharray:none;stroke-dashoffset:0;stroke-opacity:1;paint-order:markers fill stroke;color-rendering:auto;image-rendering:auto;shape-rendering:auto;text-rendering:auto;enable-background:accumulate" />
      <path
         inkscape:export-ydpi="700.72992"
         inkscape:export-xdpi="700.72992"
         inkscape:connector-curvature="0"
         id="path2058"
         transform="matrix(0.26458333,0,0,0.26458333,0,284.3)"
         d="m 176.4043,113.69922 v 10.99805 h 24 v -10.99805 z"
         style="color:#000000;font-style:normal;font-variant:normal;font-weight:normal;font-stretch:normal;font-size:medium;line-height:normal;font-family:sans-serif;font-variant-ligatures:normal;font-variant-position:normal;font-variant-caps:normal;font-variant-numeric:normal;font-variant-alternates:normal;font-feature-settings:normal;text-indent:0;text-align:start;text-decoration:none;text-decoration-line:none;text-decoration-style:solid;text-decoration-color:#000000;letter-spacing:normal;word-spacing:normal;text-transform:none;writing-mode:lr-tb;direction:ltr;text-orientation:mixed;dominant-baseline:auto;baseline-shift:baseline;text-anchor:start;white-space:normal;shape-padding:0;clip-rule:nonzero;display:inline;overflow:visible;visibility:visible;opacity:1;isolation:auto;mix-blend-mode:normal;color-interpolation:sRGB;color-interpolation-filters:linearRGB;solid-color:#000000;solid-opacity:1;vector-effect:none;fill:#c21470;fill-opacity:1;fill-rule:nonzero;stroke:none;stroke-width:1.6237669;stroke-linecap:round;stroke-linejoin:round;stroke-miterlimit:1.5;stroke-dasharray:none;stroke-dashoffset:0;stroke-opacity:1;paint-order:markers fill stroke;color-rendering:auto;image-rendering:auto;shape-rendering:auto;text-rendering:auto;enable-background:accumulate" />
      <path
         inkscape:export-ydpi="700.72992"
         inkscape:export-xdpi="700.72992"
         inkscape:connector-curvature="0"
         id="path1259"
         transform="matrix(0.26458333,0,0,0.26458333,0,284.3)"
         d="m 178.51562,116.69922 a 1.0001,1.0001 0 0 0 -0.10937,0.004 h -2.00195 v 1.99415 h 2.00195 a 1.0005206,1.0005206 0 1 0 0.10937,-1.99805 z m 4.19922,0 a 1.0001,1.0001 0 0 0 -0.10937,0.004 h -0.99609 a 1.0001,1.0001 0 0 0 -0.10352,0 1.0001,1.0001 0 0 0 0.10352,1.99415 h 0.99609 a 1.0005206,1.0005206 0 1 0 0.10937,-1.99805 z m 4.20118,0 a 1.0001,1.0001 0 0 0 -0.10938,0.004 h -0.99805 a 1.0001,1.0001 0 0 0 -0.10156,0 1.0001,1.0001 0 0 0 0.10156,1.99415 h 0.99805 a 1.0005208,1.0005208 0 1 0 0.10938,-1.99805 z m 4.19921,0 a 1.0001,1.0001 0 0 0 -0.10937,0.004 h -0.99609 a 1.0001,1.0001 0 0 0 -0.10352,0 1.0001,1.0001 0 0 0 0.10352,1.99415 h 0.99609 a 1.0005206,1.0005206 0 1 0 0.10937,-1.99805 z m 4.20118,0 a 1.0001,1.0001 0 0 0 -0.10938,0.004 h -0.99609 a 1.0001,1.0001 0 0 0 -0.10352,0 1.0001,1.0001 0 0 0 0.10352,1.99415 h 0.99609 a 1.0005208,1.0005208 0 1 0 0.10938,-1.99805 z m 2.99023,0.004 a 1.0001,1.0001 0 0 0 0.10352,1.99415 h 1.99414 v -1.99415 h -1.99414 a 1.0001,1.0001 0 0 0 -0.10352,0 z"
         style="color:#000000;font-style:normal;font-variant:normal;font-weight:normal;font-stretch:normal;font-size:medium;line-height:normal;font-family:sans-serif;font-variant-ligatures:normal;font-variant-position:normal;font-variant-caps:normal;font-variant-numeric:normal;font-variant-alternates:normal;font-feature-settings:normal;text-indent:0;text-align:start;text-decoration:none;text-decoration-line:none;text-decoration-style:solid;text-decoration-color:#000000;letter-spacing:normal;word-spacing:normal;text-transform:none;writing-mode:lr-tb;direction:ltr;text-orientation:mixed;dominant-baseline:auto;baseline-shift:baseline;text-anchor:start;white-space:normal;shape-padding:0;clip-rule:nonzero;display:inline;overflow:visible;visibility:visible;opacity:1;isolation:auto;mix-blend-mode:normal;color-interpolation:sRGB;color-interpolation-filters:linearRGB;solid-color:#000000;solid-opacity:1;vector-effect:none;fill:#ff4081;fill-opacity:1;fill-rule:nonzero;stroke:none;stroke-width:1.6237669;stroke-linecap:round;stroke-linejoin:round;stroke-miterlimit:1.5;stroke-dasharray:none;stroke-dashoffset:0;stroke-opacity:1;paint-order:markers fill stroke;color-rendering:auto;image-rendering:auto;shape-rendering:auto;text-rendering:auto;enable-background:accumulate" />
      <path
         inkscape:export-ydpi="700.72992"
         inkscape:export-xdpi="700.72992"
         inkscape:connector-curvature="0"
         id="path2047"
         d="m 50.587891,309.21094 c -0.244394,-0.0227 -0.495259,0.10684 -0.732422,0.26172 -0.197973,-0.13153 -0.409991,-0.25206 -0.650391,-0.25196 -0.531402,0.002 -0.949861,0.33414 -1.121094,0.75586 -0.171232,0.42173 -0.104495,0.95263 0.275391,1.32422 l 1.300781,1.30274 a 0.26460981,0.26460981 0 0 0 0.375,0 l 1.302735,-1.30274 0.002,-0.002 c 0.26733,-0.26333 0.388766,-0.58989 0.376953,-0.89649 -0.01184,-0.3074 -0.146213,-0.59012 -0.347656,-0.80273 -0.201444,-0.21261 -0.474932,-0.36027 -0.78125,-0.38867 z"
         style="color:#000000;font-style:normal;font-variant:normal;font-weight:normal;font-stretch:normal;font-size:medium;line-height:normal;font-family:sans-serif;font-variant-ligatures:normal;font-variant-position:normal;font-variant-caps:normal;font-variant-numeric:normal;font-variant-alternates:normal;font-feature-settings:normal;text-indent:0;text-align:start;text-decoration:none;text-decoration-line:none;text-decoration-style:solid;text-decoration-color:#000000;letter-spacing:normal;word-spacing:normal;text-transform:none;writing-mode:lr-tb;direction:ltr;text-orientation:mixed;dominant-baseline:auto;baseline-shift:baseline;text-anchor:start;white-space:normal;shape-padding:0;clip-rule:nonzero;display:inline;overflow:visible;visibility:visible;opacity:1;isolation:auto;mix-blend-mode:normal;color-interpolation:sRGB;color-interpolation-filters:linearRGB;solid-color:#000000;solid-opacity:1;vector-effect:none;fill:#e92567;fill-opacity:1;fill-rule:nonzero;stroke:none;stroke-width:0.4296217;stroke-linecap:round;stroke-linejoin:round;stroke-miterlimit:1.5;stroke-dasharray:none;stroke-dashoffset:0;stroke-opacity:1;paint-order:markers fill stroke;color-rendering:auto;image-rendering:auto;shape-rendering:auto;text-rendering:auto;enable-background:accumulate" />
      <path
         inkscape:export-ydpi="700.72992"
         inkscape:export-xdpi="700.72992"
         inkscape:connector-curvature="0"
         id="path2018"
         d="m 44.558449,307.76873 a 0.26460979,0.26460979 0 0 0 -0.265618,0.26561 v 0.26355 h 1.05885 a 0.26460979,0.26460979 0 0 1 0.263551,0.26562 v 1.85157 h 0.265615 a 0.26460979,0.26460979 0 0 0 0.263552,-0.26355 v -2.11719 a 0.26460979,0.26460979 0 0 0 -0.263552,-0.26561 z"
         style="color:#000000;font-style:normal;font-variant:normal;font-weight:normal;font-stretch:normal;font-size:medium;line-height:normal;font-family:sans-serif;font-variant-ligatures:normal;font-variant-position:normal;font-variant-caps:normal;font-variant-numeric:normal;font-variant-alternates:normal;font-feature-settings:normal;text-indent:0;text-align:start;text-decoration:none;text-decoration-line:none;text-decoration-style:solid;text-decoration-color:#000000;letter-spacing:normal;word-spacing:normal;text-transform:none;writing-mode:lr-tb;direction:ltr;text-orientation:mixed;dominant-baseline:auto;baseline-shift:baseline;text-anchor:start;white-space:normal;shape-padding:0;clip-rule:nonzero;display:inline;overflow:visible;visibility:visible;opacity:1;isolation:auto;mix-blend-mode:normal;color-interpolation:sRGB;color-interpolation-filters:linearRGB;solid-color:#000000;solid-opacity:1;vector-effect:none;fill:#304a56;fill-opacity:1;fill-rule:nonzero;stroke:none;stroke-width:0.42962167;stroke-linecap:round;stroke-linejoin:round;stroke-miterlimit:1.5;stroke-dasharray:none;stroke-dashoffset:0;stroke-opacity:1;paint-order:markers fill stroke;color-rendering:auto;image-rendering:auto;shape-rendering:auto;text-rendering:auto;enable-background:accumulate" />
      <path
         inkscape:export-ydpi="700.72992"
         inkscape:export-xdpi="700.72992"
         inkscape:connector-curvature="0"
         id="path2010"
         d="m 54.876953,307.76758 a 0.26460978,0.26460978 0 0 0 -0.265625,0.26562 v 2.11719 a 0.26460978,0.26460978 0 0 0 0.265625,0.26367 h 1.322266 a 0.26460978,0.26460978 0 0 0 0.265625,-0.26367 v -2.11719 a 0.26460978,0.26460978 0 0 0 -0.265625,-0.26562 z"
         style="color:#000000;font-style:normal;font-variant:normal;font-weight:normal;font-stretch:normal;font-size:medium;line-height:normal;font-family:sans-serif;font-variant-ligatures:normal;font-variant-position:normal;font-variant-caps:normal;font-variant-numeric:normal;font-variant-alternates:normal;font-feature-settings:normal;text-indent:0;text-align:start;text-decoration:none;text-decoration-line:none;text-decoration-style:solid;text-decoration-color:#000000;letter-spacing:normal;word-spacing:normal;text-transform:none;writing-mode:lr-tb;direction:ltr;text-orientation:mixed;dominant-baseline:auto;baseline-shift:baseline;text-anchor:start;white-space:normal;shape-padding:0;clip-rule:nonzero;display:inline;overflow:visible;visibility:visible;opacity:1;isolation:auto;mix-blend-mode:normal;color-interpolation:sRGB;color-interpolation-filters:linearRGB;solid-color:#000000;solid-opacity:1;vector-effect:none;fill:#546e7a;fill-opacity:1;fill-rule:nonzero;stroke:none;stroke-width:0.42962167;stroke-linecap:round;stroke-linejoin:round;stroke-miterlimit:1.5;stroke-dasharray:none;stroke-dashoffset:0;stroke-opacity:1;paint-order:markers fill stroke;color-rendering:auto;image-rendering:auto;shape-rendering:auto;text-rendering:auto;enable-background:accumulate" />
      <path
         inkscape:export-ydpi="700.72992"
         inkscape:export-xdpi="700.72992"
         style="color:#000000;font-style:normal;font-variant:normal;font-weight:normal;font-stretch:normal;font-size:medium;line-height:normal;font-family:sans-serif;font-variant-ligatures:normal;font-variant-position:normal;font-variant-caps:normal;font-variant-numeric:normal;font-variant-alternates:normal;font-feature-settings:normal;text-indent:0;text-align:start;text-decoration:none;text-decoration-line:none;text-decoration-style:solid;text-decoration-color:#000000;letter-spacing:normal;word-spacing:normal;text-transform:none;writing-mode:lr-tb;direction:ltr;text-orientation:mixed;dominant-baseline:auto;baseline-shift:baseline;text-anchor:start;white-space:normal;shape-padding:0;clip-rule:nonzero;display:inline;overflow:visible;visibility:visible;opacity:1;isolation:auto;mix-blend-mode:normal;color-interpolation:sRGB;color-interpolation-filters:linearRGB;solid-color:#000000;solid-opacity:1;vector-effect:none;fill:#304a56;fill-opacity:1;fill-rule:nonzero;stroke:none;stroke-width:0.42962167;stroke-linecap:round;stroke-linejoin:round;stroke-miterlimit:1.5;stroke-dasharray:none;stroke-dashoffset:0;stroke-opacity:1;paint-order:markers fill stroke;color-rendering:auto;image-rendering:auto;shape-rendering:auto;text-rendering:auto;enable-background:accumulate"
         d="m 54.876887,307.76758 a 0.26460979,0.26460979 0 0 0 -0.265618,0.26561 v 0.26355 h 1.05885 a 0.26460979,0.26460979 0 0 1 0.263551,0.26562 v 1.85157 h 0.265615 a 0.26460979,0.26460979 0 0 0 0.263552,-0.26355 v -2.11719 a 0.26460979,0.26460979 0 0 0 -0.263552,-0.26561 z"
         id="path2023"
         inkscape:connector-curvature="0" />
      <path
         inkscape:export-ydpi="700.72992"
         inkscape:export-xdpi="700.72992"
         sodipodi:nodetypes="ccccccccccccsccc"
         inkscape:connector-curvature="0"
         id="path2049"
         d="m 50.496141,309.20907 c -0.06975,0.004 -0.13988,0.0231 -0.209806,0.046 0.213664,0.0639 0.403476,0.18639 0.553455,0.34468 0.201443,0.21261 0.335941,0.49513 0.347782,0.80253 0.0118,0.3066 -0.10939,0.63326 -0.376719,0.89659 l -0.0021,0.002 -1.225764,1.22576 0.077,0.077 c 0.103444,0.10397 0.271727,0.10397 0.375171,0 l 1.30276,-1.30276 0.0021,-0.002 c 0.26733,-0.26333 0.388533,-0.58999 0.376719,-0.89659 -0.01185,-0.3074 -0.146338,-0.58992 -0.347781,-0.80253 -0.201444,-0.21261 -0.474512,-0.36021 -0.780831,-0.38861 -0.03055,-0.003 -0.06127,-0.004 -0.09199,-0.002 z"
         style="color:#000000;font-style:normal;font-variant:normal;font-weight:normal;font-stretch:normal;font-size:medium;line-height:normal;font-family:sans-serif;font-variant-ligatures:normal;font-variant-position:normal;font-variant-caps:normal;font-variant-numeric:normal;font-variant-alternates:normal;font-feature-settings:normal;text-indent:0;text-align:start;text-decoration:none;text-decoration-line:none;text-decoration-style:solid;text-decoration-color:#000000;letter-spacing:normal;word-spacing:normal;text-transform:none;writing-mode:lr-tb;direction:ltr;text-orientation:mixed;dominant-baseline:auto;baseline-shift:baseline;text-anchor:start;white-space:normal;shape-padding:0;clip-rule:nonzero;display:inline;overflow:visible;visibility:visible;opacity:1;isolation:auto;mix-blend-mode:normal;color-interpolation:sRGB;color-interpolation-filters:linearRGB;solid-color:#000000;solid-opacity:1;vector-effect:none;fill:#a10852;fill-opacity:1;fill-rule:nonzero;stroke:none;stroke-width:0.4296217;stroke-linecap:round;stroke-linejoin:round;stroke-miterlimit:1.5;stroke-dasharray:none;stroke-dashoffset:0;stroke-opacity:1;paint-order:markers fill stroke;color-rendering:auto;image-rendering:auto;shape-rendering:auto;text-rendering:auto;enable-background:accumulate" />
    </g>
    <path
       style="color:#000000;font-style:normal;font-variant:normal;font-weight:normal;font-stretch:normal;font-size:medium;line-height:normal;font-family:sans-serif;font-variant-ligatures:normal;font-variant-position:normal;font-variant-caps:normal;font-variant-numeric:normal;font-variant-alternates:normal;font-feature-settings:normal;text-indent:0;text-align:start;text-decoration:none;text-decoration-line:none;text-decoration-style:solid;text-decoration-color:#000000;letter-spacing:normal;word-spacing:normal;text-transform:none;writing-mode:lr-tb;direction:ltr;text-orientation:mixed;dominant-baseline:auto;baseline-shift:baseline;text-anchor:start;white-space:normal;shape-padding:0;clip-rule:nonzero;display:inline;overflow:visible;visibility:visible;opacity:1;isolation:auto;mix-blend-mode:normal;color-interpolation:sRGB;color-interpolation-filters:linearRGB;solid-color:#000000;solid-opacity:1;vector-effect:none;fill:#1a1a1a;fill-opacity:1;fill-rule:nonzero;stroke:none;stroke-width:0.52916664;stroke-linecap:round;stroke-linejoin:round;stroke-miterlimit:1.5;stroke-dasharray:none;stroke-dashoffset:0;stroke-opacity:1;paint-order:markers fill stroke;color-rendering:auto;image-rendering:auto;shape-rendering:auto;text-rendering:auto;enable-background:accumulate"
       d="m 12.053552,281.52802 -7.1402619,6.5e-4 c -0.2767122,0 -0.516009,0.12589 -0.6950617,0.29851 -0.1790491,0.17261 -0.3131558,0.40501 -0.3131558,0.68042 v 0.64987 h -0.651777 v -0.32461 a 0.32592088,0.32592088 0 0 0 -0.3246167,-0.32717 h -1.585522 a 0.32592088,0.32592088 0 0 0 -0.081477,-0.002 0.32592088,0.32592088 0 0 0 -0.1203005,0.0408 0.32592088,0.32592088 0 0 0 -0.00259,0 0.32592088,0.32592088 0 0 0 -0.048369,0.0362 0.32592088,0.32592088 0 0 0 -0.00443,0.002 0.32592088,0.32592088 0 0 0 -0.043282,0.0426 0.32592088,0.32592088 0 0 0 -0.00961,0.0127 0.32592088,0.32592088 0 0 0 -0.010223,0.014 0.32592088,0.32592088 0 0 0 -0.00197,0.005 0.32592088,0.32592088 0 0 0 -0.014633,0.0241 0.32592088,0.32592088 0 0 0 0,0.002 0.32592088,0.32592088 0 0 0 -0.0241783,0.0623 0.32592088,0.32592088 0 0 0 -0.009607,0.14195 v 2.55237 a 0.32592088,0.32592088 0 0 0 0.32716269,0.32462 h 1.6288037 a 0.32592088,0.32592088 0 0 0 0.3246169,-0.32462 v -0.32717 h 0.651777 v 9.45395 c 0,0.27103 0.1274974,0.50519 0.3055205,0.67851 0.1780229,0.17331 0.4197215,0.29597 0.6956932,0.29597 h 5.8335279 c 0.546551,0 0.986578,-0.44173 0.986578,-0.98913 v -1.61862 h 0.327159 c 0.271573,0 0.504456,-0.1251 0.677875,-0.29851 0.173418,-0.17343 0.298519,-0.40695 0.298519,-0.67851 v -6.84367 h 0.651777 v 0.32717 a 0.32592088,0.32592088 0 0 0 0.327159,0.32461 h 1.628807 a 0.32592088,0.32592088 0 0 0 0.327162,-0.32461 v -2.60775 a 0.32592088,0.32592088 0 0 0 -0.327162,-0.32716 h -1.585522 a 0.32592088,0.32592088 0 0 0 -0.08148,-0.002 0.32592088,0.32592088 0 0 0 -0.147035,0.0579 0.32592088,0.32592088 0 0 0 -0.02164,0.0165 0.32592088,0.32592088 0 0 0 -0.0044,0.002 0.32592088,0.32592088 0 0 0 -0.0026,0.002 0.32592088,0.32592088 0 0 0 -0.04328,0.0432 0.32592088,0.32592088 0 0 0 -0.0051,0.007 0.32592088,0.32592088 0 0 0 -0.03119,0.0484 0.32592088,0.32592088 0 0 0 0,0.002 0.32592088,0.32592088 0 0 0 -0.03374,0.20432 v 0.26924 h -0.651679 v -0.65177 c 0,-0.27158 -0.125105,-0.5051 -0.298521,-0.67851 -0.15385,-0.15385 -0.35636,-0.2642 -0.589399,-0.28834 a 0.32592088,0.32592088 0 0 0 -0.002,-10e-4 0.32592088,0.32592088 0 0 0 -0.03184,-0.005 0.32592088,0.32592088 0 0 0 -0.05475,-0.005 z m -7.1402619,0.6524 h 6.2427979 c -0.03824,0.1473 -0.07956,0.32717 -0.07956,0.32717 v 8.14593 H 4.5574915 v -8.14593 c 0,-0.0427 0.036187,-0.13761 0.1126639,-0.21132 0.076477,-0.0738 0.1791539,-0.11578 0.2431446,-0.11578 z m 7.1402619,0 c 0.05432,0 0.145411,0.0371 0.216413,0.10815 0.071,0.0709 0.108205,0.16273 0.108205,0.21705 v 0.65177 h -0.651777 v -0.64986 c 0,0 0.0052,-0.095 0.04774,-0.18014 0.0426,-0.0852 0.06216,-0.14703 0.279423,-0.14703 z m -10.4290616,0.97703 h 0.9770295 v 1.95597 H 1.6244904 Z m 12.7096446,0 h 0.978939 v 1.95597 h -0.978939 z m -11.0808394,0.65178 h 0.651777 v 0.65178 h -0.651777 z m 8.4730974,0 h 1.95533 v 0.65178 h -1.95533 z m -3.1131275,0.47164 c -0.2647967,0.0144 -0.5336581,0.1577 -0.7892588,0.32462 -0.2438466,-0.16201 -0.5046191,-0.31074 -0.800717,-0.31061 -0.654531,0.002 -1.1703008,0.41177 -1.3812069,0.9312 -0.2109083,0.51945 -0.1286538,1.17366 0.3392533,1.63134 l 1.6020735,1.60463 a 0.32592092,0.32592092 0 0 0 0.4620994,0 l 1.6046151,-1.60463 0.00259,-0.002 c 0.3292714,-0.32434 0.4785589,-0.72669 0.4640079,-1.10433 -0.01458,-0.37862 -0.1802344,-0.7266 -0.4283525,-0.98847 -0.2481193,-0.26187 -0.5844582,-0.44367 -0.961752,-0.47865 -0.037629,-0.004 -0.075467,-0.005 -0.1133045,-0.002 z m 0.052828,0.64923 c 0.2007375,0.0186 0.3995751,0.12399 0.5486667,0.28134 0.1490854,0.15736 0.242382,0.36185 0.2501418,0.5633 0.00776,0.20145 -0.056326,0.4067 -0.2717841,0.61805 a 0.32592092,0.32592092 0 0 0 -0.00259,0.002 l -1.3761129,1.37626 -1.3735668,-1.37612 a 0.32592092,0.32592092 0 0 0 -0.00257,-0.002 c -0.2795474,-0.27343 -0.3135894,-0.62209 -0.1922219,-0.92101 0.1211134,-0.29829 0.3868486,-0.52238 0.7765298,-0.52449 h 0.00257 c 0.2103775,4.9e-4 0.4127183,0.0786 0.5677564,0.22087 a 0.32592092,0.32592092 0 0 0 0.4404599,0 c 0.2226576,-0.20375 0.431946,-0.25666 0.6326804,-0.23805 z m 3.0602965,0.18332 h 0.651776 V 287.394 H 11.72639 Z m 0,2.93235 h 0.651776 v 2.60775 H 11.72639 Z m -7.1689071,3.25952 h 6.5190411 v 0.32717 c -0.01121,-6.6e-4 -0.02252,-6.6e-4 -0.03374,0 -0.403851,0.0479 -0.372905,0.64398 0.03374,0.64987 v 1.30355 H 4.5574826 v -1.30355 c 0.4710555,0.0397 0.4710555,-0.68957 0,-0.64987 z m 7.1689071,0 h 0.651776 v 0.65178 c 0,0.0543 -0.03721,0.14797 -0.108205,0.21896 -0.071,0.0709 -0.162094,0.10568 -0.216413,0.10568 l -0.327159,0.001 z m -5.764788,0.3259 a 0.32592088,0.32592088 0 0 0 -0.035646,10e-4 H 5.6013406 a 0.32592088,0.32592088 0 0 0 -0.033736,0 0.32592088,0.32592088 0 0 0 0.033736,0.64987 H 5.925955 a 0.32605796,0.32605796 0 1 0 0.035646,-0.65114 z m 1.369115,0 a 0.32592088,0.32592088 0 0 0 -0.035646,10e-4 H 6.969818 a 0.32592088,0.32592088 0 0 0 -0.033096,0 0.32592088,0.32592088 0 0 0 0.033096,0.64987 h 0.3252534 a 0.32605806,0.32605806 0 1 0 0.035646,-0.65114 z m 1.3684734,0 a 0.32592088,0.32592088 0 0 0 -0.035646,10e-4 H 8.3389315 a 0.32592088,0.32592088 0 0 0 -0.033736,0 0.32592088,0.32592088 0 0 0 0.033736,0.64987 h 0.3246131 a 0.32605796,0.32605796 0 1 0 0.035646,-0.65114 z m 1.3691156,0 a 0.32592088,0.32592088 0 0 0 -0.03565,10e-4 H 9.7080449 a 0.32592088,0.32592088 0 0 0 -0.033736,0 0.32592088,0.32592088 0 0 0 0.033736,0.64987 H 10.03266 a 0.32605806,0.32605806 0 1 0 0.03565,-0.65114 z m -5.5108231,2.60647 h 6.5190411 v 0.31506 c 0,0.1282 -0.212213,0.33735 -0.336712,0.33735 H 4.9062841 c -0.073188,0 -0.1683862,-0.0404 -0.2405975,-0.11073 -0.072215,-0.0703 -0.1082052,-0.16035 -0.1082052,-0.21195 z"
       id="rect1238"
       inkscape:connector-curvature="0" />
  </g>
</svg>
